<svg xmlns="http://www.w3.org/2000/svg" width="100" height="99" viewBox="0 0 100 99"><path fill="#dee2e6" d="M92 41a4 4 0 1 1 8 0 4 4 0 0 1-8 0zM28 93a6 6 0 1 1 12 0 6 6 0 0 1-12 0zM10 4a4 4 0 1 1 8 0 4 4 0 0 1-8 0z"/><path fill="#51aabc" d="M53.62 72.03L38 64.22V45l15.62 7.81z"/><path fill="#1c8397" d="M54 72.03l15.62-7.81V45L54 52.81z"/><path fill="#187789" d="M38 44.81L53.02 37l16.21 7.81-15.61 7.81z"/><path fill="#51aabc" d="M15.62 72.03L0 64.22V45l15.62 7.81z"/><path fill="#1c8397" d="M16 72.03l15.62-7.81V45L16 52.81z"/><path fill="#187789" d="M0 44.81L15.02 37l16.21 7.81-15.61 7.81z"/><path fill="#fbc771" d="M35.62 52.03L20 44.22V25l15.62 7.81z"/><path fill="#f3a82e" d="M36 52.03l15.62-7.81V25L36 32.81z"/><path fill="#de9218" d="M20 24.81L35.02 17l16.21 7.81-15.61 7.81z"/></svg>