<?xml version="1.0" encoding="utf-8"?>
<!-- Generator: Adobe Illustrator 19.2.1, SVG Export Plug-In . SVG Version: 6.00 Build 0)  -->
<svg version="1.1" id="Layer_1" xmlns="http://www.w3.org/2000/svg" xmlns:xlink="http://www.w3.org/1999/xlink" x="0px" y="0px"
	 viewBox="0 0 61 60" style="enable-background:new 0 0 61 60;" xml:space="preserve">
<path style="fill:#2DBCD0;" d="M0,3c0-1.7,1.3-3,3-3h42c1.7,0,3,1.3,3,3v54c0,1.7-1.3,3-3,3H3c-1.7,0-3-1.3-3-3V3z"/>
<path style="fill:#1C8397;" d="M9,11.5c0-0.8,0.7-1.5,1.5-1.5h26c0.8,0,1.5,0.7,1.5,1.5S37.3,13,36.5,13h-26C9.7,13,9,12.3,9,11.5z
	 M9,17.5c0-0.8,0.7-1.5,1.5-1.5h26c0.8,0,1.5,0.7,1.5,1.5S37.3,19,36.5,19h-26C9.7,19,9,18.3,9,17.5z M9,23.5c0-0.8,0.7-1.5,1.5-1.5
	h26c0.8,0,1.5,0.7,1.5,1.5S37.3,25,36.5,25h-26C9.7,25,9,24.3,9,23.5z M9,29.5c0-0.8,0.7-1.5,1.5-1.5h26c0.8,0,1.5,0.7,1.5,1.5
	S37.3,31,36.5,31h-26C9.7,31,9,30.3,9,29.5z M9,35.5c0-0.8,0.7-1.5,1.5-1.5h26c0.8,0,1.5,0.7,1.5,1.5S37.3,37,36.5,37h-26
	C9.7,37,9,36.3,9,35.5z M9,41.5c0-0.8,0.7-1.5,1.5-1.5h12c0.8,0,1.5,0.7,1.5,1.5S23.3,43,22.5,43h-12C9.7,43,9,42.3,9,41.5z"/>
<g>
	<path style="fill:#F3A82E;" d="M36,51.7l-4.4-4L53.1,24l4.4,4L36,51.7z"/>
	<path style="fill:#FACF88;" d="M31.7,51.9l0.3-4.8l4.4,4L31.7,51.9z"/>
</g>
</svg>
