<svg xmlns="http://www.w3.org/2000/svg" width="117.5" height="56" viewBox="0 0 117.5 56"><path fill="#187789" d="M25.04 55.14c13.82 0 25.03-3.61 25.03-8.07 0-4.46-11.21-8.07-25.03-8.07C11.21 39 0 42.61 0 47.07c0 4.46 11.21 8.07 25.04 8.07z"/><path fill="#1c8397" d="M25.04 47.14c13.82 0 25.03-3.61 25.03-8.07 0-4.46-11.21-8.07-25.03-8.07C11.21 31 0 34.61 0 39.07c0 4.46 11.21 8.07 25.04 8.07z"/><path fill="#51aabc" d="M25.04 39.14c13.82 0 25.03-3.61 25.03-8.07 0-4.46-11.21-8.07-25.03-8.07C11.21 23 0 26.61 0 31.07c0 4.46 11.21 8.07 25.04 8.07z"/><path fill="#f3a82e" d="M34.31 11.11a.54.54 0 0 0-.49-.31h-6.4L33.74.83c.1-.17.11-.38.02-.55a.56.56 0 0 0-.48-.28h-8.64c-.2 0-.39.12-.48.3l-8.1 16.2a.53.53 0 0 0 .48.78h5.55l-6.05 14.38a.55.55 0 0 0 .5.75c.15 0 .31-.07.41-.2l17.29-20.52a.55.55 0 0 0 .07-.58z"/><path fill="none" stroke="#bdc4cd" stroke-linecap="round" stroke-linejoin="round" stroke-miterlimit="50" stroke-width="3" d="M65.5 28.5h50.09M65.5 37.5h34M65.5 46.5h18"/></svg>