<svg xmlns="http://www.w3.org/2000/svg" width="48" height="78.5" viewBox="0 0 48 78.5"><defs><clipPath id="a"><path fill="#fff" d="M284 933.5a11.5 11.5 0 0 1 11.5-11.5h14a11.5 11.5 0 0 1 11.5 11.5v5.5a6 6 0 0 1-6 6h-25a6 6 0 0 1-6-6z"/></clipPath></defs><path fill="#1f4c58" d="M7.5 71.5a3 3 0 0 1 3-3h2a3 3 0 0 1 3 3v4a3 3 0 0 1-3 3h-2a3 3 0 0 1-3-3zM33.5 71.5a3 3 0 0 1 3-3h2a3 3 0 0 1 3 3v4a3 3 0 0 1-3 3h-2a3 3 0 0 1-3-3z"/><path fill="#51aabc" d="M5.5 51A11.5 11.5 0 0 1 17 39.5h14A11.5 11.5 0 0 1 42.5 51v5.5a6 6 0 0 1-6 6h-25a6 6 0 0 1-6-6z"/><path fill="none" stroke="#1c8397" stroke-miterlimit="50" stroke-width="10" d="M284 933.5a11.5 11.5 0 0 1 11.5-11.5h14a11.5 11.5 0 0 1 11.5 11.5v5.5a6 6 0 0 1-6 6h-25a6 6 0 0 1-6-6z" clip-path="url(&quot;#a&quot;)" transform="translate(-278.5 -882.5)"/><path fill="#1c8397" d="M2.5 59.5a6 6 0 0 1 6-6h32a6 6 0 0 1 6 6v9a6 6 0 0 1-6 6h-32a6 6 0 0 1-6-6z"/><path fill="#1a6877" d="M14.5 61c0-.83.67-1.5 1.5-1.5h17a1.5 1.5 0 1 1 0 3H16a1.5 1.5 0 0 1-1.5-1.5z"/><path fill="#f3a82e" d="M7.5 61a2.5 2.5 0 1 1 5 0 2.5 2.5 0 0 1-5 0zM36.5 61a2.5 2.5 0 1 1 5 0 2.5 2.5 0 0 1-5 0z"/><path fill="none" stroke="#bdc4cd" stroke-linecap="round" stroke-linejoin="round" stroke-miterlimit="50" stroke-width="3" d="M15.5 27.68s4.08-2.18 8.2-2.18c4.11 0 8.19 2.18 8.19 2.18M8.5 17.64s7.74-4.14 15.55-4.14c7.81 0 15.55 4.14 15.55 4.14M1.5 7.41S12.55 1.5 23.68 1.5c11.14 0 22.19 5.91 22.19 5.91"/></svg>