<svg xmlns="http://www.w3.org/2000/svg" width="41" height="34" viewBox="0 0 41 34"><path fill="#fff" d="M30.45 18.41s-3.99-3.94-4.75-4.71c-.95-.96-1.74-1.98-4.93-1.98H7.55c-.85 0-1.23.91-.11 1.67a47.93 47.93 0 0 0-3.78 3.4C1.25 19.22 0 20.78 0 23.91c0 2.94 1.74 6.22 5.31 6.22h.02a5 5 0 0 0 9.43 0h10.66a5 5 0 0 0 9.42 0h1.15c3.34 0 4.19-2.97 4.19-5.3 0-3.41-1.88-4.32-3.79-4.87-2.25-.66-3.15-.9-5.94-1.55zM10.04 30.47a2 2 0 1 1 .02-4.02 2 2 0 0 1-.02 4.02zm5.99-10.38c-1.79 0-5.86-.18-8.74-1.26.97-1.25 1.67-2.04 2.13-2.57a3.5 3.5 0 0 1 2.61-1.19h4zm4.75-5.02c1.47 0 2.39.82 3.38 1.85.76.78 2.9 3.17 2.9 3.17h-9.35v-5.02zm9.35 15.4a2.01 2.01 0 1 1 0-4.02 2.01 2.01 0 0 1 0 4.02zM24.06 5.86c0 .46-.37.84-.83.84h-3.14v1.67h-3.16c-1.42 0-2.66-.7-3.42-1.77a3.74 3.74 0 0 0-3.05-1.58h-.03c-6.73 0-8.8 5.38-5.86 8.8l-1.24 1.13c-3.91-4.48-1.11-11.6 7.1-11.6h.03c1.21 0 2.35-.59 3.05-1.58C14.27.7 15.51 0 16.93 0h3.16v1.67h3.14c.46 0 .83.38.83.84 0 .46-.37.84-.83.84h-3.14v1.67h3.14c.46 0 .83.38.83.84z"/></svg>