<svg xmlns="http://www.w3.org/2000/svg" width="24" height="23" viewBox="0 0 24 23"><path fill="#1c8397" d="M21.87 5.84A11.66 11.66 0 0 0 11.72 0 11.66 11.66 0 0 0 0 11.72c0 2.55.75 4.85 2.24 6.89a11.43 11.43 0 0 0 5.77 4.23c.28.05.48.02.61-.1.13-.13.2-.28.2-.46l-.01-.83-.01-1.35-.35.06a5.61 5.61 0 0 1-1.9-.06 2.43 2.43 0 0 1-1.03-.45 2 2 0 0 1-.67-.94l-.15-.35c-.1-.24-.26-.5-.48-.78a1.81 1.81 0 0 0-.66-.58l-.11-.08a1.12 1.12 0 0 1-.34-.39c-.03-.08 0-.13.08-.18.08-.05.23-.07.44-.07l.31.05c.2.04.45.16.75.36.3.21.55.47.74.8.24.41.52.73.85.95.33.22.66.33 1 .33.33 0 .62-.03.87-.08.24-.05.47-.13.68-.23.1-.68.35-1.2.75-1.57a6.6 6.6 0 0 1-3-.87c-.49-.27-.9-.61-1.22-1.02a4.9 4.9 0 0 1-.81-1.6 7.93 7.93 0 0 1-.31-2.29c0-1.23.4-2.28 1.21-3.15a4.11 4.11 0 0 1 .1-3.11c.3-.09.74-.02 1.32.21a8.36 8.36 0 0 1 1.92 1 10.63 10.63 0 0 1 5.86 0l.58-.37c.39-.24.86-.47 1.4-.67.54-.2.95-.26 1.24-.17.46 1.15.5 2.19.12 3.11a4.5 4.5 0 0 1 1.21 3.15c0 .86-.11 1.63-.32 2.29-.21.67-.48 1.2-.81 1.61-.33.4-.74.74-1.23 1.01-.5.28-.97.47-1.44.6-.46.12-.98.21-1.56.27.53.46.79 1.18.79 2.17v3.22c0 .18.07.33.19.45.13.13.33.16.61.11a11.43 11.43 0 0 0 5.77-4.23 11.4 11.4 0 0 0 2.24-6.89c0-2.13-.53-4.09-1.57-5.88z"/></svg>