<?xml version="1.0" encoding="utf-8"?>
<!-- Generator: Adobe Illustrator 19.2.1, SVG Export Plug-In . SVG Version: 6.00 Build 0)  -->
<svg version="1.1" id="Layer_1" xmlns="http://www.w3.org/2000/svg" xmlns:xlink="http://www.w3.org/1999/xlink" x="0px" y="0px"
	 viewBox="0 0 58 44" style="enable-background:new 0 0 58 44;" xml:space="preserve">
<g>
	<path style="fill:#1C8397;" d="M0,4c0-2.2,1.8-4,4-4h50c2.2,0,4,1.8,4,4v36c0,2.2-1.8,4-4,4H4c-2.2,0-4-1.8-4-4V4z"/>
	<g>
		<defs>
			<path id="SVGID_1_" d="M0,4c0-2.2,1.8-4,4-4h50c2.2,0,4,1.8,4,4v36c0,2.2-1.8,4-4,4H4c-2.2,0-4-1.8-4-4V4z"/>
		</defs>
		<clipPath id="SVGID_2_">
			<use xlink:href="#SVGID_1_"  style="overflow:visible;"/>
		</clipPath>
		<path style="clip-path:url(#SVGID_2_);fill:#2DBCD0;" d="M9,45.6L30,20l21,26.7l-39.4,1.6L9,45.6z"/>
		<path style="opacity:0.61;clip-path:url(#SVGID_2_);fill:#2DBCD0;" d="M29.4,39.6l21-25.6l22.9,32.9L28,49.2L29.4,39.6z"/>
	</g>
	<path style="fill:#F3A82E;" d="M6.7,14.5c0-3,2.5-5.5,5.5-5.5s5.5,2.5,5.5,5.5S15.2,20,12.2,20S6.7,17.5,6.7,14.5z"/>
</g>
</svg>
