<svg xmlns="http://www.w3.org/2000/svg" width="19" height="19" viewBox="0 0 19 19"><path fill="#7f8994" d="M16.74 10.07a6.58 6.58 0 0 0 0-1.8l1.94-1.51a.47.47 0 0 0 .11-.59L16.95 3a.46.46 0 0 0-.56-.2l-2.28.92a6.67 6.67 0 0 0-1.55-.9L12.21.39a.45.45 0 0 0-.45-.39H8.09a.45.45 0 0 0-.45.39l-.35 2.43c-.56.23-1.07.54-1.55.9L3.46 2.8a.45.45 0 0 0-.56.2L1.06 6.17a.46.46 0 0 0 .11.59l1.94 1.51a6.82 6.82 0 0 0 0 1.8l-1.94 1.52a.46.46 0 0 0-.11.58l1.84 3.18c.11.2.36.27.56.2l2.28-.92c.48.37.99.67 1.55.9l.35 2.43c.03.22.22.39.45.39h3.67c.23 0 .42-.17.45-.39l.35-2.43a7.05 7.05 0 0 0 1.55-.9l2.28.92c.21.08.45 0 .56-.2l1.84-3.18a.46.46 0 0 0-.11-.58zm-6.82 2.31a3.21 3.21 0 1 1 0-6.43 3.21 3.21 0 0 1 0 6.43z"/></svg>