<svg xmlns="http://www.w3.org/2000/svg" width="1836" height="981" viewBox="396 213 1440 768"><defs><linearGradient id="a" x1="1453.68" x2="1" y1="9.86" y2="745.4" gradientUnits="userSpaceOnUse"><stop offset="0" stop-color="#2dbdd2"/><stop offset="1" stop-color="#19788c"/></linearGradient><linearGradient id="b" x1="750.56" x2="1576.44" y1="351.91" y2="32.06" gradientUnits="userSpaceOnUse"><stop offset="0" stop-color="#1c8397"/><stop offset="1" stop-color="#2dbcd0"/></linearGradient><linearGradient id="c" x1="1139.65" x2="553.99" y1="700.58" y2="-115.22" gradientUnits="userSpaceOnUse"><stop offset="0" stop-color="#1c8397"/><stop offset="1" stop-color="#2dbcd0"/></linearGradient><linearGradient id="d" x1="128.74" x2="697.53" y1="668.11" y2="447.94" gradientUnits="userSpaceOnUse"><stop offset="0" stop-color="#1c8397"/><stop offset="1" stop-color="#2dbcd0"/></linearGradient><linearGradient id="e" x1="62.02" x2="450.98" y1="84.99" y2="626.89" gradientUnits="userSpaceOnUse"><stop offset="0" stop-color="#1c8397"/><stop offset="1" stop-color="#2dbcd0"/></linearGradient></defs><path fill="url(#a)" d="M1-57h1440v795.22H1z" transform="translate(195 71)"/><path fill="url(#b)" d="M776.09-70.99c58.7-.84 312.18 77.49 530.85 244.72 218.66 167.22 359.59 388.1 330.1 435.65-29.49 47.56-376.58 49.88-520.42 29.36-143.85-20.52-257.55-114.52-366.17-268.99C641.83 215.28 649.5 92.15 671.39-2.74c14.62-63.37 81.2-67.92 104.7-68.25z" transform="translate(195 71)"/><path fill="url(#c)" d="M324.78-60.99c78.91-1.13 419.73 104.19 713.72 329.03 294 224.83 483.47 521.8 443.82 585.74-39.64 63.94-506.3 67.06-699.7 39.47-193.41-27.58-346.28-153.97-492.32-361.66C144.25 323.9 154.57 158.36 184 30.77c19.66-85.19 109.18-91.31 140.78-91.76z" transform="translate(195 71)"/><path fill="url(#d)" d="M145.34 376c40.42-.57 215.01 53.38 365.61 168.55 150.6 115.18 247.67 267.3 227.35 300.06-20.31 32.75-259.36 34.35-358.43 20.22-99.07-14.13-177.38-78.88-252.2-185.27-74.81-106.39-69.53-191.19-54.45-256.55 10.07-43.64 55.93-46.77 72.12-47.01z" transform="translate(195 71)"/><path fill="url(#e)" d="M-89.46 121.01c52.46-.76 279.01 69.25 474.44 218.71C580.4 489.18 706.35 686.58 680 729.08c-26.36 42.5-336.56 44.57-465.12 26.24C86.32 736.98-15.29 652.97-112.37 514.91c-97.08-138.06-90.23-248.1-70.66-332.91 13.06-56.63 72.57-60.69 93.57-60.99z" transform="translate(195 71)"/></svg>
