<?xml version="1.0" encoding="utf-8"?>
<!-- Generator: Adobe Illustrator 19.2.1, SVG Export Plug-In . SVG Version: 6.00 Build 0)  -->
<svg version="1.1" id="Layer_1" xmlns="http://www.w3.org/2000/svg" xmlns:xlink="http://www.w3.org/1999/xlink" x="0px" y="0px"
	 viewBox="0 0 1306.4 864.9" style="enable-background:new 0 0 1306.4 864.9;" xml:space="preserve">
<style type="text/css">
	.st0{opacity:0.2;fill:#DEE2E6;}
	.st1{fill:url(#SVGID_1_);}
	.st2{fill:url(#SVGID_2_);}
</style>
<path class="st0" d="M399.2,572.1c45.5-14.4,261.2-12.7,470.5,66.4c209.4,79.1,370.7,218.1,358.9,262
	c-11.8,43.9-281.5,126.9-398.3,144.6c-116.8,17.7-227.3-28.9-348-123.8c-120.7-94.9-143.5-192.5-148.7-271.5
	C330.2,596.9,381,577.8,399.2,572.1L399.2,572.1z"/>
<linearGradient id="SVGID_1_" gradientUnits="userSpaceOnUse" x1="-433.9782" y1="516.4206" x2="-45.0182" y2="-25.4794" gradientTransform="matrix(0.9971 -7.590294e-002 -7.590294e-002 -0.9971 307.7843 645.571)">
	<stop  offset="0" style="stop-color:#1C8397"/>
	<stop  offset="1" style="stop-color:#2DBCD0"/>
</linearGradient>
<path class="st1" d="M-225.1,137.7c52.3-4.7,283.5,47.9,489.7,182.1c206.2,134.2,346.8,321.5,323.7,365.8
	c-23.1,44.4-332.2,70-461.8,61.5c-129.6-8.5-237.3-84.6-344.6-214.9s-108.8-240.5-95.7-326.6C-305.1,148.1-246,139.5-225.1,137.7
	L-225.1,137.7z"/>
<linearGradient id="SVGID_2_" gradientUnits="userSpaceOnUse" x1="1529.1708" y1="305.7479" x2="1061.4208" y2="791.2479" gradientTransform="matrix(-0.6427 0.7661 0.7661 0.6427 1694.267 -999.7523)">
	<stop  offset="0" style="stop-color:#1C8397"/>
	<stop  offset="1" style="stop-color:#2DBCD0"/>
</linearGradient>
<path class="st2" d="M1533.4,365.1c-25.1,30.8-176.2,128.3-358.2,169s-358,17.6-369.9-18.4c-11.8-36,138.1-217.2,211.4-282.9
	c73.3-65.7,171.6-83.8,299.1-72.9c127.5,10.9,188,68.5,227.8,121.2C1570.1,316.2,1543.5,352.7,1533.4,365.1L1533.4,365.1z"/>
</svg>
