<svg xmlns="http://www.w3.org/2000/svg" width="1976" height="639" viewBox="0 0 1976 639"><path fill="#dee2e6" d="M78.37 165c38.46-.55 204.54 50.78 347.81 160.34 143.26 109.57 235.59 254.28 216.27 285.44-19.32 31.16-246.72 32.67-340.97 19.23-94.25-13.44-168.74-75.03-239.91-176.24C-9.6 352.56-4.57 271.9 9.77 209.72c9.58-41.51 53.21-44.49 68.6-44.72zM1340.67 1c43.08-.61 229.13 56.88 389.62 179.62 160.49 122.73 263.92 284.84 242.27 319.75-21.64 34.9-276.38 36.6-381.96 21.54-105.57-15.06-189.02-84.05-268.75-197.42-79.72-113.38-74.09-203.74-58.02-273.39 10.73-46.51 59.6-49.85 76.84-50.1z"/></svg>