<?xml version="1.0" encoding="utf-8"?>
<!-- Generator: Adobe Illustrator 19.2.1, SVG Export Plug-In . SVG Version: 6.00 Build 0)  -->
<svg version="1.1" id="Layer_1" xmlns="http://www.w3.org/2000/svg" xmlns:xlink="http://www.w3.org/1999/xlink" x="0px" y="0px"
	 viewBox="0 0 1306 864" style="enable-background:new 0 0 1306 864;" xml:space="preserve">
<style type="text/css">
	.st0{opacity:0.2;fill:#DEE2E6;}
	.st1{fill:#F3A82E;}
</style>
<path class="st0" d="M465.9,568.2c45.9-13,261.4-4.9,468.4,80.3c206.9,85.2,364.1,229,351,272.5c-13.1,43.6-285.2,118.5-402.4,132.7
	c-117.3,14.2-226.4-35.6-344.2-134C420.8,821.3,400.9,723,398.1,643.9C396.2,591,447.5,573.4,465.9,568.2L465.9,568.2z"/>
<path class="st1" d="M-402.7,396.7c38.3-38.2,256.3-149.2,508.3-178.9c252-29.7,487,25.9,498.1,76.3
	c11,50.4-217.1,274.7-325.4,353.5c-108.3,78.8-243.9,89.6-414.9,57.1c-171-32.4-245-118.8-291.4-195.7
	C-459.2,457.7-418,412-402.7,396.7z"/>
<path class="st1" d="M880,343.3c24.5-29.6,171-122.5,347-160.4c176-37.9,345.7-14.3,356.8,20.5S1448.9,412,1377.6,474.9
	c-71.2,62.9-166.3,79.6-289.2,68.1c-123-11.5-181-67.5-218.9-118.7C844.2,390.2,870.2,355.1,880,343.3z"/>
</svg>
