<svg xmlns="http://www.w3.org/2000/svg" width="1007" height="686" viewBox="0 0 1007 686"><defs><filter id="a" width="200%" height="200%" x="-50%" y="-50%"><feMorphology in="SourceGraphic" operator="dilate" result="SvgjsFeMorphology1105Out"/><feOffset dy="20" in="SvgjsFeMorphology1105Out" result="SvgjsFeOffset1106Out"/><feGaussianBlur in="SvgjsFeOffset1106Out" result="SvgjsFeGaussianBlur1107Out" stdDeviation="25"/><feComposite in="SvgjsFeGaussianBlur1107Out" in2="SourceAlpha" operator="out" result="SvgjsFeComposite1108Out"/></filter><filter id="b" width="200%" height="200%" x="-50%" y="-50%"><feMorphology in="SourceGraphic" operator="dilate" result="SvgjsFeMorphology1114Out"/><feOffset dy="20" in="SvgjsFeMorphology1114Out" result="SvgjsFeOffset1115Out"/><feGaussianBlur in="SvgjsFeOffset1115Out" result="SvgjsFeGaussianBlur1116Out" stdDeviation="25"/><feComposite in="SvgjsFeGaussianBlur1116Out" in2="SourceAlpha" operator="out" result="SvgjsFeComposite1117Out"/></filter><filter id="c" width="200%" height="200%" x="-50%" y="-50%"><feMorphology in="SourceGraphic" operator="dilate" result="SvgjsFeMorphology1123Out"/><feOffset dy="20" in="SvgjsFeMorphology1123Out" result="SvgjsFeOffset1124Out"/><feGaussianBlur in="SvgjsFeOffset1124Out" result="SvgjsFeGaussianBlur1125Out" stdDeviation="25"/><feComposite in="SvgjsFeGaussianBlur1125Out" in2="SourceAlpha" operator="out" result="SvgjsFeComposite1126Out"/></filter></defs><path fill="#dee2e6" d="M186.04.01c55.69-.8 296.18 73.52 503.64 232.17 207.46 158.66 341.16 368.21 313.18 413.33-27.98 45.12-357.27 47.32-493.75 27.85-136.47-19.46-244.34-108.65-347.4-255.2C58.66 271.6 65.93 154.79 86.7 64.76 100.57 4.64 163.75.33 186.04.01z"/><path fill="#a4b0bd" fill-opacity=".37" d="M931 3026a5 5 0 0 1 5-5h187a5 5 0 0 1 5 5v219a5 5 0 0 1-5 5H936a5 5 0 0 1-5-5z" filter="url(#a)" transform="translate(-765 -2900)"/><path fill="#1c8397" d="M166 126a5 5 0 0 1 5-5h187a5 5 0 0 1 5 5v219a5 5 0 0 1-5 5H171a5 5 0 0 1-5-5z"/><path fill="#fff" d="M205.7 105c13.77-.2 73.23 18.18 124.52 57.4 51.29 39.23 84.34 91.04 77.42 102.19-6.91 11.16-88.33 11.7-122.07 6.89-33.74-4.81-60.41-26.86-85.88-63.1-25.48-36.23-23.68-65.11-18.55-87.37 3.43-14.86 19.05-15.93 24.56-16.01z"/><path fill="#fff" d="M274.45 237.41s-3.99-3.94-4.75-4.71c-.95-.96-1.74-1.98-4.93-1.98h-13.22c-.85 0-1.23.91-.11 1.67a47.93 47.93 0 0 0-3.78 3.4c-2.41 2.43-3.66 3.99-3.66 7.12 0 2.94 1.74 6.22 5.31 6.22h.02a5 5 0 0 0 9.43 0h10.66a5 5 0 0 0 9.42 0h1.15c3.34 0 4.19-2.97 4.19-5.3 0-3.41-1.88-4.32-3.79-4.87-2.25-.66-3.15-.9-5.94-1.55zm-20.41 12.06a2 2 0 1 1 .02-4.02 2 2 0 0 1-.02 4.02zm5.99-10.38c-1.79 0-5.86-.18-8.74-1.26.97-1.25 1.67-2.04 2.13-2.57a3.5 3.5 0 0 1 2.61-1.19h4zm4.75-5.02c1.47 0 2.39.82 3.38 1.85.76.78 2.9 3.17 2.9 3.17h-9.35v-5.02zm9.35 15.4a2.01 2.01 0 1 1 0-4.02 2.01 2.01 0 0 1 0 4.02zm-6.07-24.61c0 .46-.37.84-.83.84h-3.14v1.67h-3.16c-1.42 0-2.66-.7-3.42-1.77a3.74 3.74 0 0 0-3.05-1.58h-.03c-6.73 0-8.8 5.38-5.86 8.8l-1.24 1.13c-3.91-4.48-1.11-11.6 7.1-11.6h.03c1.21 0 2.35-.59 3.05-1.58.76-1.07 2-1.77 3.42-1.77h3.16v1.67h3.14c.46 0 .83.38.83.84 0 .46-.37.84-.83.84h-3.14v1.67h3.14c.46 0 .83.38.83.84z"/><path fill="#a4b0bd" fill-opacity=".37" d="M1035 3221a5 5 0 0 1 5-5h184a5 5 0 0 1 5 5v216a5 5 0 0 1-5 5h-184a5 5 0 0 1-5-5z" filter="url(#b)" transform="translate(-765 -2900)"/><path fill="#f3a82e" d="M270 321a5 5 0 0 1 5-5h184a5 5 0 0 1 5 5v216a5 5 0 0 1-5 5H275a5 5 0 0 1-5-5z"/><path fill="#fff" d="M234.41 327c13.62-.19 72.45 17.99 123.2 56.8s83.46 90.07 76.61 101.11c-6.84 11.04-87.4 11.57-120.78 6.81-33.39-4.76-59.77-26.58-84.98-62.43s-23.43-64.42-18.35-86.45c3.39-14.7 18.84-15.76 24.3-15.84z"/><path fill="#fff" d="M375.86 426.08v-10.29l-9.68-5.79-9.56 5.72v10.42l-9.62 5.17v11.57l9.84 5.6 9.4-5.44 9.41 5.44 9.83-5.6v-11.5zm-1.83.06l-6.93 3.83v-7.95l6.93-4.07zm-7.85-13.96l6.85 4.16-6.84 4.02-6.7-4.09zm-16.31 19.68l7.66-4.06 6.8 3.88-7.49 4.27zm15.46 1.42v8.11l-7.58 4.42v-8.2zm9.68-5.51l7.64 4.16-7 4.02-7.45-4.35zm8.64 13.97l-7.09 4.07v-8.2l7.09-4.07z"/><path fill="#a4b0bd" fill-opacity=".37" d="M815 3155a5 5 0 0 1 5-5h163a5 5 0 0 1 5 5v192a5 5 0 0 1-5 5H820a5 5 0 0 1-5-5z" filter="url(#c)" transform="translate(-765 -2900)"/><path fill="#2dbcd0" d="M50 255a5 5 0 0 1 5-5h163a5 5 0 0 1 5 5v192a5 5 0 0 1-5 5H55a5 5 0 0 1-5-5z"/><path fill="#fff" d="M122.41 294c13.62-.19 72.45 17.99 123.2 56.8s83.46 90.07 76.61 101.11c-6.84 11.04-87.4 11.57-120.78 6.81-33.39-4.76-59.77-26.58-84.98-62.43s-23.43-64.42-18.35-86.45c3.39-14.7 18.84-15.76 24.3-15.84z"/><path fill="#fff" d="M142.96 342.9h6.53v17.43H119V342.9h6.53a9.43 9.43 0 1 0 17.43 0zm10.89 6.18v5.08c0 1-.81 1.81-1.82 1.81h-1.09v-8.71h1.09c1.01 0 1.82.81 1.82 1.82zm-13.07-2.55a6.54 6.54 0 1 1-13.08 0 6.54 6.54 0 0 1 13.08 0zm-7.21 2.88l4.08-4.16-1.01-1.01-3.07 3.15-1.45-1.36-1 1.01z"/></svg>