<?xml version="1.0" encoding="utf-8"?>
<!-- Generator: Adobe Illustrator 19.2.1, SVG Export Plug-In . SVG Version: 6.00 Build 0)  -->
<svg version="1.1" id="Layer_1" xmlns="http://www.w3.org/2000/svg" xmlns:xlink="http://www.w3.org/1999/xlink" x="0px" y="0px"
	 viewBox="0 0 597.5 648.5" style="enable-background:new 0 0 597.5 648.5;" xml:space="preserve">
<filter  height="200%" id="c" width="200%" x="-50%" y="-50%">
	<feMorphology  in="SourceGraphic" operator="dilate" result="SvgjsFeMorphology1093Out"></feMorphology>
	<feOffset  dy="20" in="SvgjsFeMorphology1093Out" result="SvgjsFeOffset1094Out"></feOffset>
	<feGaussianBlur  in="SvgjsFeOffset1094Out" result="SvgjsFeGaussianBlur1095Out" stdDeviation="25"></feGaussianBlur>
	<feComposite  in="SvgjsFeGaussianBlur1095Out" in2="SourceAlpha" operator="out" result="SvgjsFeComposite1096Out"></feComposite>
</filter>
<filter  height="200%" id="b" width="200%" x="-50%" y="-50%">
	<feMorphology  in="SourceGraphic" operator="dilate" result="SvgjsFeMorphology1084Out"></feMorphology>
	<feOffset  dy="20" in="SvgjsFeMorphology1084Out" result="SvgjsFeOffset1085Out"></feOffset>
	<feGaussianBlur  in="SvgjsFeOffset1085Out" result="SvgjsFeGaussianBlur1086Out" stdDeviation="25"></feGaussianBlur>
	<feComposite  in="SvgjsFeGaussianBlur1086Out" in2="SourceAlpha" operator="out" result="SvgjsFeComposite1087Out"></feComposite>
</filter>
<filter  height="200%" id="a" width="200%" x="-50%" y="-50%">
	<feMorphology  in="SourceGraphic" operator="dilate" result="SvgjsFeMorphology1075Out"></feMorphology>
	<feOffset  dy="20" in="SvgjsFeMorphology1075Out" result="SvgjsFeOffset1076Out"></feOffset>
	<feGaussianBlur  in="SvgjsFeOffset1076Out" result="SvgjsFeGaussianBlur1077Out" stdDeviation="25"></feGaussianBlur>
	<feComposite  in="SvgjsFeGaussianBlur1077Out" in2="SourceAlpha" operator="out" result="SvgjsFeComposite1078Out"></feComposite>
</filter>
<g style="filter:url(#a);">
	<path style="opacity:0.37;fill:#A4B0BD;" d="M202.5,119.5c0-2.8,2.2-5,5-5h187c2.8,0,5,2.2,5,5v219c0,2.8-2.2,5-5,5h-187
		c-2.8,0-5-2.2-5-5V119.5z"/>
</g>
<path style="fill:#1C8397;" d="M202.5,119.5c0-2.8,2.2-5,5-5h187c2.8,0,5,2.2,5,5v219c0,2.8-2.2,5-5,5h-187c-2.8,0-5-2.2-5-5V119.5z
	"/>
<path style="opacity:0.17;fill:#FFFFFF;" d="M224.2,275.7c1.1-13.7,25.1-71.2,69-118.5c43.9-47.3,98.6-75.3,109.1-67.4
	c10.5,7.9,3.3,89-4.7,122.2s-32.5,57.6-71,79.5c-38.5,21.9-67.1,17.4-88.7,10.2C223.3,296.8,223.7,281.2,224.2,275.7z"/>
<path style="fill:#FFFFFF;" d="M311,230.9c0,0-4-3.9-4.8-4.7c-1-1-1.7-2-4.9-2h-13.2c-0.9,0-1.2,0.9-0.1,1.7
	c-1.3,1.1-2.6,2.2-3.8,3.4c-2.4,2.4-3.7,4-3.7,7.1c0,2.9,1.7,6.2,5.3,6.2h0c0.9,2.6,3.8,4,6.4,3.1c1.4-0.5,2.5-1.6,3.1-3.1h10.7
	c0.9,2.6,3.8,4,6.4,3c1.4-0.5,2.5-1.6,3-3h1.1c3.3,0,4.2-3,4.2-5.3c0-3.4-1.9-4.3-3.8-4.9C314.6,231.8,313.7,231.6,311,230.9
	L311,230.9z M290.5,243c-1.1,0-2-0.9-2-2s0.9-2,2-2c1.1,0,2,0.9,2,2C292.6,242.1,291.7,243,290.5,243z M296.5,232.6
	c-1.8,0-5.9-0.2-8.7-1.3c1-1.3,1.7-2,2.1-2.6c0.7-0.8,1.6-1.2,2.6-1.2h4V232.6z M301.3,227.6c1.5,0,2.4,0.8,3.4,1.9
	c0.8,0.8,2.9,3.2,2.9,3.2h-9.4v-5H301.3z M310.6,243c-1.1,0-2-0.9-2-2c0-1.1,0.9-2,2-2s2,0.9,2,2C312.6,242.1,311.7,243,310.6,243z
	 M304.6,218.4c0,0.5-0.4,0.8-0.8,0.8h-3.1v1.7h-3.2c-1.4,0-2.7-0.7-3.4-1.8c-0.7-1-1.8-1.6-3.1-1.6h0c-6.7,0-8.8,5.4-5.9,8.8
	l-1.2,1.1c-3.9-4.5-1.1-11.6,7.1-11.6h0c1.2,0,2.4-0.6,3.1-1.6c0.8-1.1,2-1.8,3.4-1.8h3.2v1.7h3.1c0.5,0,0.8,0.4,0.8,0.8
	c0,0.5-0.4,0.8-0.8,0.8h-3.1v1.7h3.1C304.2,217.5,304.6,217.9,304.6,218.4L304.6,218.4z"/>
<g style="filter:url(#b);">
	<path style="opacity:0.37;fill:#A4B0BD;" d="M306.5,314.5c0-2.8,2.2-5,5-5h184c2.8,0,5,2.2,5,5v216c0,2.8-2.2,5-5,5h-184
		c-2.8,0-5-2.2-5-5V314.5z"/>
</g>
<path style="fill:#F3A82E;" d="M306.5,314.5c0-2.8,2.2-5,5-5h184c2.8,0,5,2.2,5,5v216c0,2.8-2.2,5-5,5h-184c-2.8,0-5-2.2-5-5V314.5z
	"/>
<path style="fill:#FFFFFF;" d="M412.4,419.6v-10.3l-9.7-5.8l-9.6,5.7v10.4l-9.6,5.2v11.6l9.8,5.6l9.4-5.4l9.4,5.4l9.8-5.6v-11.5
	L412.4,419.6z M410.5,419.6l-6.9,3.8v-8l6.9-4.1V419.6z M402.7,405.7l6.9,4.2l-6.8,4l-6.7-4.1L402.7,405.7z M386.4,425.4l7.7-4.1
	l6.8,3.9l-7.5,4.3L386.4,425.4z M401.8,426.8v8.1l-7.6,4.4v-8.2L401.8,426.8z M411.5,421.3l7.6,4.2l-7,4l-7.5-4.4L411.5,421.3z
	 M420.1,435.2l-7.1,4.1v-8.2l7.1-4.1V435.2z"/>
<g style="filter:url(#c);">
	<path style="opacity:0.37;fill:#A4B0BD;" d="M86.5,248.5c0-2.8,2.2-5,5-5h163c2.8,0,5,2.2,5,5v192c0,2.8-2.2,5-5,5h-163
		c-2.8,0-5-2.2-5-5V248.5z"/>
</g>
<path style="fill:#2DBCD0;" d="M86.5,248.5c0-2.8,2.2-5,5-5h163c2.8,0,5,2.2,5,5v192c0,2.8-2.2,5-5,5h-163c-2.8,0-5-2.2-5-5V248.5z"
	/>
<path style="fill:#FFFFFF;" d="M179.5,336.4h6.5v17.4h-30.5v-17.4h6.5c-2,4.8,0.3,10.3,5.1,12.3c4.8,2,10.3-0.3,12.3-5.1
	C180.4,341.3,180.4,338.7,179.5,336.4L179.5,336.4z M190.4,342.6v5.1c0,1-0.8,1.8-1.8,1.8h-1.1v-8.7h1.1
	C189.5,340.8,190.4,341.6,190.4,342.6z M177.3,340c0,3.6-2.9,6.5-6.5,6.5c-3.6,0-6.5-2.9-6.5-6.5c0-3.6,2.9-6.5,6.5-6.5
	C174.4,333.5,177.3,336.4,177.3,340z M170.1,342.9l4.1-4.2l-1-1l-3.1,3.2l-1.4-1.4l-1,1L170.1,342.9z"/>
<path style="opacity:0.17;fill:#FFFFFF;" d="M137.4,313.8c13.4-2.4,74.4,5.9,130.8,35.9s97.1,75.2,92.1,87.2
	c-4.9,12-84.3,25.7-118,26.5c-33.7,0.8-63.3-16.4-94.1-47.7S114.6,356,116,333.4C116.9,318.4,132,314.8,137.4,313.8L137.4,313.8z
	 M251.2,353.5c13-3.9,74.6-2.6,134.1,20.8c59.5,23.4,105,63.7,101.4,76.2c-3.5,12.5-80.9,35.1-114.3,39.7
	c-33.4,4.6-64.8-9.1-98.9-36.7c-34.1-27.5-40.2-55.5-41.4-78.1C231.4,360.4,246,355.1,251.2,353.5L251.2,353.5z"/>
</svg>
